<?xml version="1.0" standalone="no"?>
<!DOCTYPE svg PUBLIC "-//W3C//DTD SVG 20010904//EN"
 "http://www.w3.org/TR/2001/REC-SVG-20010904/DTD/svg10.dtd">
<svg version="1.0" xmlns="http://www.w3.org/2000/svg"
 width="525.000000pt" height="475.000000pt" viewBox="0 0 525.000000 475.000000"
 preserveAspectRatio="xMidYMid meet">

<g transform="translate(0.000000,475.000000) scale(0.100000,-0.100000)"
fill="#000000" stroke="none">
<path d="M1164 3737 c-3 -9 -3 -21 1 -27 4 -6 1 -9 -6 -8 -27 6 -42 -83 -43
-242 -1 -134 3 -166 23 -235 30 -102 76 -204 136 -297 45 -70 132 -179 147
-186 12 -6 9 -26 -9 -63 -46 -92 -19 -216 64 -289 42 -36 79 -50 168 -63 16
-2 21 -12 26 -57 4 -30 11 -67 17 -81 30 -76 126 -139 212 -139 l50 0 0 -36
c0 -59 21 -112 62 -158 50 -58 112 -86 188 -86 56 0 60 -2 60 -22 0 -57 23
-104 74 -154 71 -69 142 -87 244 -63 43 11 69 33 285 248 151 150 237 243 237
256 0 17 2 18 11 5 8 -12 9 -11 7 5 -2 12 -11 19 -22 18 -11 0 -15 4 -12 12 3
10 0 12 -11 8 -13 -5 -15 -2 -9 13 5 14 -1 11 -23 -10 -17 -16 -28 -34 -24
-39 3 -6 2 -7 -4 -4 -5 4 -101 -82 -213 -191 -111 -108 -216 -205 -233 -214
-42 -24 -84 -22 -131 5 -61 35 -93 118 -68 178 4 10 90 103 192 209 189 197
211 230 175 260 -11 9 -21 10 -38 3 -12 -6 -111 -98 -221 -204 -109 -107 -208
-199 -220 -206 -32 -19 -97 -15 -134 7 -67 41 -92 132 -53 195 10 17 101 116
203 220 183 188 219 234 181 236 -10 0 -13 3 -5 6 23 9 3 20 -29 15 -25 -4
-74 -46 -231 -201 -110 -108 -210 -200 -222 -204 -33 -14 -92 -10 -126 8 -59
31 -87 118 -60 189 5 14 96 113 202 222 106 108 194 200 194 205 1 5 3 10 4
12 7 7 6 46 -1 41 -5 -3 -9 -1 -9 4 0 5 -11 9 -24 8 -18 -1 -82 -57 -226 -196
-113 -109 -217 -201 -235 -209 -21 -8 -48 -11 -70 -7 -49 9 -110 71 -118 119
-11 72 4 96 186 283 95 97 173 185 175 196 5 25 -15 48 -42 48 -13 0 -74 -51
-166 -140 l-145 -140 -39 43 c-85 93 -188 271 -225 391 -43 139 -47 262 -15
424 6 28 4 31 -11 26 -14 -6 -16 -3 -11 13 8 26 -30 65 -40 40z m20 -13 c3 -8
2 -12 -4 -9 -6 3 -10 10 -10 16 0 14 7 11 14 -7z"/>
<path d="M1341 3550 c-3 -8 -6 -58 -5 -111 1 -113 26 -205 85 -320 49 -94 78
-124 113 -115 42 10 44 47 4 108 -70 108 -118 249 -118 350 0 32 -4 58 -10 58
-5 0 -10 7 -10 16 0 11 5 14 18 9 13 -5 14 -3 6 5 -9 9 -18 9 -35 -1 -22 -11
-23 -11 -11 4 12 14 11 16 -8 14 -12 -1 -25 -8 -29 -17z"/>
<path d="M1580 1093 c24 -2 48 -10 53 -16 6 -8 7 -7 4 3 -2 11 -18 15 -53 16
l-49 1 45 -4z"/>
<path d="M1870 1092 c0 -4 17 -6 38 -4 64 6 69 10 15 11 -29 0 -53 -3 -53 -7z"/>
<path d="M2063 1093 c15 -2 37 -2 50 0 12 2 0 4 -28 4 -27 0 -38 -2 -22 -4z"/>
<path d="M2230 1093 c0 -9 209 -7 218 1 3 3 -45 6 -106 6 -62 0 -112 -3 -112
-7z"/>
<path d="M2673 1093 c15 -2 37 -2 50 0 12 2 0 4 -28 4 -27 0 -38 -2 -22 -4z"/>
<path d="M2840 879 l0 -220 43 3 42 3 0 87 c0 47 2 89 5 92 3 2 33 6 68 7 l62
2 0 33 0 33 -67 3 -68 3 -1 40 c-2 65 -1 65 97 65 l89 0 0 35 0 35 -135 0
-135 0 0 -221z"/>
<path d="M3190 880 l0 -220 45 0 45 0 0 220 0 220 -45 0 -45 0 0 -220z"/>
<path d="M3350 1065 l0 -35 53 0 c28 0 57 -4 62 -8 6 -4 10 -77 10 -182 l0
-175 42 -3 43 -3 2 183 3 183 60 3 61 3 -4 34 -4 35 -164 0 -164 0 0 -35z"/>
<path d="M2514 1050 c0 -13 4 -16 10 -10 7 7 7 13 0 20 -6 6 -10 3 -10 -10z"/>
<path d="M1837 998 c-4 -12 -4 -24 -2 -27 3 -2 5 1 5 8 0 7 4 10 9 7 5 -4 7 3
4 14 -7 25 -9 25 -16 -2z"/>
<path d="M2451 1003 c7 -10 15 -20 16 -22 2 -2 3 3 3 11 0 9 -7 19 -16 22 -15
6 -15 4 -3 -11z"/>
<path d="M2449 913 c-13 -16 -12 -17 4 -4 16 13 21 21 13 21 -2 0 -10 -8 -17
-17z"/>
<path d="M2340 892 c0 -4 16 -6 35 -4 19 2 35 6 35 8 0 2 -16 4 -35 4 -19 0
-35 -4 -35 -8z"/>
<path d="M2510 875 c-7 -8 -17 -12 -23 -8 -6 4 -7 1 -3 -6 6 -9 13 -8 27 5 10
9 19 19 19 21 0 7 -8 2 -20 -12z"/>
<path d="M1640 805 c0 -5 5 -17 10 -25 5 -8 10 -10 10 -5 0 6 -5 17 -10 25 -5
8 -10 11 -10 5z"/>
<path d="M2650 668 c0 -4 21 -8 48 -7 52 1 48 6 -10 11 -21 2 -38 0 -38 -4z"/>
<path d="M1733 663 c9 -2 25 -2 35 0 9 3 1 5 -18 5 -19 0 -27 -2 -17 -5z"/>
<path d="M2063 663 c15 -2 37 -2 50 0 12 2 0 4 -28 4 -27 0 -38 -2 -22 -4z"/>
<path d="M2253 663 c15 -2 37 -2 50 0 12 2 0 4 -28 4 -27 0 -38 -2 -22 -4z"/>
<path d="M2483 663 c15 -2 39 -2 55 0 15 2 2 4 -28 4 -30 0 -43 -2 -27 -4z"/>
</g>
</svg>
